<svg id="Capa_1" enable-background="new 0 0 512.404 512.404" height="36" viewBox="0 0 512.404 512.404" width="36" xmlns="http://www.w3.org/2000/svg"><style>.path { fill: #1981ff; }</style><g><path class="path" d="m469.66 200.514v-150.275h-469.66v330.551h298.223l108.384 81.376 105.798-79.435v-182.217zm-54.35-120.275-180.48 160.984-180.48-160.984zm-385.31 18.479 112.297 100.168-112.297 127.24zm270.809 252.072h-252.564l116.441-131.934 70.145 62.568 65.979-58.852v128.218zm138.851-252.072v101.796h-114.123zm42.744 269.023-75.798 56.91-75.798-56.91v-137.227h151.596z"/><path class="path" d="m451.606 342.867v-78.804h-90v78.804l45 36.253zm-60-48.803h30v34.448l-15 12.084-15-12.084z"/></g></svg>