<?xml version="1.0" encoding="UTF-8" standalone="no"?>
<svg
   xmlns:dc="http://purl.org/dc/elements/1.1/"
   xmlns:cc="http://creativecommons.org/ns#"
   xmlns:rdf="http://www.w3.org/1999/02/22-rdf-syntax-ns#"
   xmlns:svg="http://www.w3.org/2000/svg"
   xmlns="http://www.w3.org/2000/svg"
   viewBox="0 0 348 171.17073"
   version="1.1"
   id="svg3352"
   height="171.17073"
   width="348">
  <defs
     id="defs3354" />
  <metadata
     id="metadata3357">
    <rdf:RDF>
      <cc:Work
         rdf:about="">
        <dc:format>image/svg+xml</dc:format>
        <dc:type
           rdf:resource="http://purl.org/dc/dcmitype/StillImage" />
        <dc:title></dc:title>
      </cc:Work>
    </rdf:RDF>
  </metadata>
  <g
     transform="translate(-148,-135)"
     id="layer1">
    <rect
       y="135"
       x="148"
       height="171.17073"
       width="348"
       id="rect4133"
       style="opacity:1;fill:#009a58;fill-opacity:1;stroke:none;stroke-width:3;stroke-miterlimit:4;stroke-dasharray:none;stroke-opacity:0.46745564" />
    <g
       id="text4135"
       style="font-style:normal;font-weight:normal;font-size:56.5853653px;line-height:125%;font-family:sans-serif;letter-spacing:0px;word-spacing:0px;fill:#ffffff;fill-opacity:1;stroke:none;stroke-width:1px;stroke-linecap:butt;stroke-linejoin:miter;stroke-opacity:1">
      <path
         id="path4146"
         style="font-style:normal;font-variant:normal;font-weight:bold;font-stretch:normal;font-family:'Segoe UI';-inkscape-font-specification:'Segoe UI Bold';fill:#ffffff"
         d="m 193.88167,209.11356 q -4.36547,0 -7.23895,-2.65244 -2.87347,-2.65244 -2.87347,-6.46532 0,-4.03391 2.87347,-6.52058 2.92874,-2.54192 7.34947,-2.54192 4.47599,0 7.29421,2.59718 2.87347,2.54192 2.87347,6.46532 0,4.03392 -2.81821,6.57584 -2.81822,2.54192 -7.45999,2.54192 z m 8.34413,25.14291 -8.12309,27.96113 -13.59375,0 5.63643,-27.96113 16.08041,0 z" />
      <path
         id="path4148"
         style="font-style:normal;font-variant:normal;font-weight:normal;font-stretch:normal;font-family:'Segoe UI';-inkscape-font-specification:'Segoe UI';fill:#ffffff"
         d="m 263.72923,222.15472 -39.95236,0 q 0.22104,9.44931 5.08384,14.58841 4.86281,5.13911 13.37271,5.13911 9.55984,0 17.57241,-6.29955 l 0,8.50991 q -7.45998,5.4154 -19.72751,5.4154 -11.99124,0 -18.84337,-7.68102 -6.85214,-7.73628 -6.85214,-21.71685 0,-13.20693 7.45999,-21.49581 7.51524,-8.34413 18.62233,-8.34413 11.10709,0 17.1856,7.18369 6.0785,7.18369 6.0785,19.94855 l 0,4.75229 z m -9.28354,-7.68102 q -0.0553,-7.8468 -3.81288,-12.21227 -3.70236,-4.36547 -10.33346,-4.36547 -6.41006,0 -10.88605,4.5865 -4.47599,4.58651 -5.52591,11.99124 l 30.5583,0 z" />
      <path
         id="path4150"
         style="font-style:normal;font-variant:normal;font-weight:normal;font-stretch:normal;font-family:'Segoe UI';-inkscape-font-specification:'Segoe UI';fill:#ffffff"
         d="m 317.99371,248.18178 -9.0625,0 0,-8.84147 -0.22103,0 q -5.91273,10.16769 -17.40663,10.16769 -8.45465,0 -13.2622,-4.47599 -4.75228,-4.47599 -4.75228,-11.88072 0,-15.85937 18.67759,-18.45655 l 16.96455,-2.37615 q 0,-14.42263 -11.65968,-14.42263 -10.22294,0 -18.45655,6.96265 l 0,-9.28354 q 8.34413,-5.30488 19.23018,-5.30488 19.94855,0 19.94855,21.109 l 0,36.80259 z m -9.0625,-28.62424 -13.649,1.87881 q -6.29955,0.88415 -9.50458,3.14977 -3.20503,2.21037 -3.20503,7.90206 0,4.14444 2.92874,6.79688 2.98399,2.59718 7.90205,2.59718 6.74162,0 11.10709,-4.69703 4.42073,-4.75229 4.42073,-11.99124 l 0,-5.63643 z" />
      <path
         id="path4152"
         style="font-style:normal;font-variant:normal;font-weight:normal;font-stretch:normal;font-family:'Segoe UI';-inkscape-font-specification:'Segoe UI';fill:#ffffff"
         d="m 331.75324,246.13719 0,-9.72561 q 7.40472,5.47066 16.30145,5.47066 11.93597,0 11.93597,-7.95732 0,-2.26563 -1.04992,-3.81288 -0.99467,-1.60252 -2.76296,-2.81822 -1.71303,-1.2157 -4.08918,-2.15511 -2.32088,-0.99466 -5.02858,-2.04458 -3.75762,-1.492 -6.6311,-2.984 -2.81821,-1.54725 -4.75228,-3.42607 -1.87881,-1.93407 -2.87348,-4.36547 -0.9394,-2.4314 -0.9394,-5.69169 0,-3.97866 1.82355,-7.01791 1.82355,-3.09451 4.8628,-5.1391 3.03926,-2.09985 6.9074,-3.14977 3.9234,-1.04993 8.06783,-1.04993 7.34947,0 13.15168,2.54192 l 0,9.17302 q -6.24429,-4.08917 -14.36738,-4.08917 -2.54192,0 -4.58651,0.60785 -2.04459,0.55259 -3.53658,1.60251 -1.43674,1.04992 -2.26563,2.54192 -0.77363,1.43674 -0.77363,3.20503 0,2.21037 0.77363,3.70237 0.82889,1.49199 2.37614,2.65243 1.54726,1.16045 3.75763,2.09985 2.21036,0.93941 5.02858,2.04459 3.75762,1.43674 6.74161,2.98399 2.984,1.492 5.08385,3.42607 2.09984,1.87881 3.20503,4.36547 1.16044,2.48666 1.16044,5.91273 0,4.1997 -1.87881,7.29421 -1.82355,3.09451 -4.91807,5.1391 -3.09451,2.04459 -7.12843,3.03925 -4.03391,0.99467 -8.45465,0.99467 -8.73094,0 -15.141,-3.37081 z" />
      <path
         id="path4154"
         style="font-style:normal;font-variant:normal;font-weight:normal;font-stretch:normal;font-family:'Segoe UI';-inkscape-font-specification:'Segoe UI';fill:#ffffff"
         d="m 463.49104,248.18178 -9.0625,0 0,-32.49238 q 0,-9.39405 -2.92874,-13.59375 -2.87347,-4.19969 -9.72561,-4.19969 -5.80221,0 -9.89138,5.30487 -4.03392,5.30488 -4.03392,12.70961 l 0,32.27134 -9.0625,0 0,-33.59756 q 0,-16.68826 -12.87538,-16.68826 -5.96799,0 -9.83613,5.02858 -3.86814,4.97332 -3.86814,12.9859 l 0,32.27134 -9.0625,0 0,-56.58537 9.0625,0 0,8.95198 0.22104,0 q 6.02324,-10.2782 17.5724,-10.2782 5.80222,0 10.11243,3.26029 4.31021,3.20503 5.91273,8.45465 6.29954,-11.71494 18.78811,-11.71494 18.67759,0 18.67759,23.04307 l 0,34.86852 z" />
    </g>
  </g>
</svg>
