<?xml version="1.0" encoding="iso-8859-1"?>
<svg version="1.1" id="Capa_1" xmlns="http://www.w3.org/2000/svg" xmlns:xlink="http://www.w3.org/1999/xlink" x="0px" y="0px"
	 viewBox="0 0 248.637 248.637" style="enable-background:new 0 0 248.637 248.637;" xml:space="preserve">
<g opacity="0.18">
	<g>
		<polygon points="105.454,103.76 107.167,104.793 123.885,77.067 140.604,104.796 142.317,103.764 123.885,73.194 		"/>
		<polygon points="105.454,86.266 107.167,87.299 123.885,59.573 140.604,87.303 142.317,86.271 123.885,55.7 		"/>
		<polygon points="105.454,68.773 107.167,69.806 123.885,42.08 140.604,69.81 142.317,68.777 123.885,38.207 		"/>
		<path d="M215.817,244.635l-64.704-107.31l66.513-110.31H30.144l66.513,110.311l-64.704,107.31h-9.124v4h19.905v-4h-8.445
			l63.536-105.373l26.06,43.221l26.061-43.221l63.536,105.374h-7.579v4h19.905v-4h-9.991V244.635z M214.084,29.015l-16.127,26.746
			l-16.848-26.746C181.109,29.015,214.084,29.015,214.084,29.015z M33.685,29.015h32.984L49.815,55.768L33.685,29.015z
			 M123.884,178.609l-24.893-41.284l24.893-41.285l24.893,41.284L123.884,178.609z M123.885,92.167l-26.061,43.221L50.972,57.685
			l18.061-28.67h109.712l18.056,28.664l-46.856,77.71L123.885,92.167z"/>
		<circle cx="123.885" cy="136.955" r="7.312"/>
		<polygon points="75.452,3.358 99.664,15.545 123.876,3.358 148.088,15.545 172.302,3.358 196.519,15.545 221.41,3.019 
			220.061,0.339 196.519,12.186 172.302,0 148.088,12.186 123.876,0 99.664,12.186 75.452,0 51.242,12.186 27.708,0.339 
			26.359,3.019 51.242,15.545 		"/>
		<path d="M123.884,194.287c-11.763,0-21.565,8.526-23.57,19.721H69.886v2h30.154c-0.068,0.735-0.107,1.478-0.107,2.23
			c0,0.924,0.058,1.834,0.16,2.73H69.886v1h30.339c1.797,11.441,11.722,20.222,23.66,20.222s21.862-8.78,23.66-20.222h30.626v-1
			h-30.494c0.102-0.897,0.16-1.807,0.16-2.73c0-0.752-0.039-1.496-0.107-2.23h30.441v-2h-30.716
			C145.45,202.813,135.647,194.287,123.884,194.287z M123.884,196.287c10.657,0,19.561,7.635,21.539,17.721h-43.077
			C104.324,203.922,113.228,196.287,123.884,196.287z M123.884,240.191c-10.832,0-19.851-7.889-21.628-18.222h43.256
			C143.735,232.302,134.716,240.191,123.884,240.191z M145.66,220.969h-43.552c-0.111-0.895-0.176-1.805-0.176-2.73
			c0-0.753,0.039-1.497,0.113-2.23h43.678c0.074,0.733,0.113,1.477,0.113,2.23C145.836,219.164,145.771,220.074,145.66,220.969z"/>
	</g>
</g>
</svg>
